<?xml version="1.0" encoding="utf-8"?>
<!-- Generator: Adobe Illustrator 22.1.0, SVG Export Plug-In . SVG Version: 6.00 Build 0)  -->
<svg version="1.1" id="Laag_1" xmlns="http://www.w3.org/2000/svg" xmlns:xlink="http://www.w3.org/1999/xlink" x="0px" y="0px"
	 viewBox="0 0 558 308" style="enable-background:new 0 0 558 308;" xml:space="preserve">
<style type="text/css">
	.st0{fill:#FFFFFF;}
	.st1{fill:none;}
	.st2{fill:#0065A8;}
	.st3{fill:#F7941E;}
</style>
<rect class="st0" width="558" height="308.6"/>
<g>
	<path class="st1" d="M458.8,194.2c-6.8,0-9.3,7.9-9.5,13.4h17.6C466.9,201.3,466.1,194.2,458.8,194.2z"/>
	<path class="st1" d="M142.3,194.2c-6.8,0-9.3,7.9-9.5,13.4h17.6C150.4,201.3,149.6,194.2,142.3,194.2z"/>
	<polygon class="st1" points="71.7,141 75,140.5 75.5,133.3 75.5,116.9 47.6,116.9 47.6,131.6 54,131.6 69.8,165.2 79.5,144.7 
		71.2,144.7 	"/>
	<polygon class="st1" points="479.2,116.9 479.2,133.3 479.7,140.5 483.1,141 483.6,144.7 474.9,144.7 484.5,165.2 500.4,131.6 
		507.2,131.6 507.2,116.9 	"/>
	<polygon class="st1" points="99.3,140.8 101.8,140.5 101.9,139.4 99.5,139.7 	"/>
	<path class="st1" d="M84.6,181l0.5-4.4v-25.6h-0.1L73,176.5c4,0.7,7.7,2.1,10.9,4.7L84.6,181z"/>
	<path class="st1" d="M293.4,189.8c0-0.2,0-0.4-0.1-0.6h-5.1l0.5-7.7h0.2c-3.1-1.6-7.3-1.7-11.4-1.7h-0.8v22.1h1.5
		c3.8,0,7.3,0.2,10.6-2.1C292.1,197.3,293.4,193.8,293.4,189.8z"/>
	<path class="st1" d="M276.7,205.6V222l0.6,7.2l5.4,0.5c3.4,0,6.9-0.6,9.5-3.1c2.2-2.2,3.3-5.2,3.3-8.2c0-8.4-9-12.7-16.3-12.7
		L276.7,205.6L276.7,205.6z"/>
	<polygon class="st1" points="49.2,151.5 49.1,151.6 49.1,175.9 60.6,175.9 	"/>
	<path class="st1" d="M312.3,112.7c3.3-2.6,4.4-6.8,4.4-10.9c0-7.3-4.6-10.7-11.6-10.7c-2.3,0-4.5,0.4-6.8,1v23.5h1.5
		C304.1,115.6,308.9,115.5,312.3,112.7z"/>
	<polygon class="st1" points="298.3,119.4 298.3,131.6 312.5,131.6 305.2,119.4 	"/>
	<path class="st1" d="M268.2,116c0-11.8-4.3-26.4-18.5-26.4c-14.3,0-18.5,14.6-18.5,26.4c0,4.7,0.8,10,2.5,14.6
		c1.7-0.3,3.5-0.4,5.2-0.4c6.1,0,12.2,1,18,2.4l-0.3,8.5C265.3,137.1,268.2,125.6,268.2,116z"/>
	<path class="st1" d="M383,146.2c-0.3,0-0.6,0-1,0v21.7c0,3.3,0.4,7.7,2.2,10.6c1.9,3,5.9,4.5,9.3,4.5c1.4,0,2.6-0.1,3.6-0.4v-6.6
		h6.1c0.8-3,0.8-6.5,0.8-10v-22.8l-0.5-3.3l-3.3-0.5l-0.1-2.5C397.1,142.8,390.2,146.2,383,146.2z"/>
	<polygon class="st1" points="186.3,140.5 186.6,140.5 186.7,139.7 186.5,139.7 	"/>
	<path class="st1" d="M77.8,185.1c-2.2-2-4.7-3.3-7.2-4.1h-7.7l-0.6-1.2c-1.3-0.1-2.6-0.1-3.9-0.1h-5.2V222l0.5,6.7l8.2,0.5
		c7,0,13.2-1.5,17.7-7.2c3.9-4.9,5.4-11.9,5.4-18.1C85.1,197,83.2,190,77.8,185.1z"/>
	<path class="st1" d="M248.3,140.3c-2.4-1.6-5.6-2.9-8.5-2.9c-0.6,0-1.2,0.1-1.7,0.2c2.6,2.7,6.1,4.5,10.6,4.8L248.3,140.3z"/>
	<polygon class="st2" points="38.1,140.6 36.1,141 35.6,144.7 38.5,144.7 38.5,143.1 	"/>
	<polygon class="st2" points="47.6,116.9 75.5,116.9 75.5,133.3 75,140.5 71.7,141 71.2,144.7 79.5,144.7 83.3,136.7 83.1,133.3 
		83.1,98.7 83.6,91.5 87,91 87.5,87.2 71.2,87.2 71.7,91 75,91.5 75.5,98.7 75.5,113.1 47.6,113.1 47.6,98.7 48,91.5 51.4,91 
		51.9,87.2 35.6,87.2 36.1,91 39.5,91.5 40,98.7 40,131.6 47.6,131.6 	"/>
	<polygon class="st2" points="110.4,91.5 113.7,91 114.2,87.2 98,87.2 98.5,91 101.8,91.5 102.3,98.7 102.3,131.6 103.3,131.6 
		102.8,139.2 101.9,139.4 101.8,140.5 99.3,140.8 99,143.1 99,144.7 114.2,144.7 113.7,141 110.4,140.5 109.9,133.3 109.9,98.7 	"/>
	<path class="st2" d="M156.2,139.2l-3.3,0.5l-0.4,3.2c4.2-2.8,7.1-7.3,7.1-13.2c0-4.9-2.1-9-6-12c-3.1-2.4-7.2-4.7-10.7-6.7
		c-4.8-2.7-10-5.4-10-11.7c0-5.1,3.8-9.6,9-9.6c3.5,0,6.9,1.3,10,3.1l0.5,3.9l3.8,0.5l0.5-8.9c-4.7-1.5-9.7-2.4-14.6-2.4
		c-4.5,0-8.5,1.2-11.8,4.4c-2.9,2.9-4.8,6.8-4.8,10.9c0,9.1,8.4,13.5,15.4,17.4c5.6,3.2,11.1,5.7,11.1,13l0,0h4.8L156.2,139.2z"/>
	<path class="st2" d="M136.9,142c-2.7-0.7-5.2-2.1-7.6-3.6l-0.5-3.9l-3.8-0.5l-0.5,9.6c4,1.1,8.3,2.1,12.5,2.4v-3L136.9,142z"/>
	<polygon class="st2" points="198.5,141 195.2,140.5 194.8,133.3 194.8,91 204.8,91 211.1,91.5 211.6,95.9 215.4,96.4 215.8,87.2 
		166,87.2 166.5,96.4 170.3,95.9 170.8,91.5 177.1,91 187.1,91 187.1,131.6 190.3,131.6 189.8,139.2 186.7,139.7 186.6,140.5 
		186.3,140.5 186,143.1 186,144.7 199,144.7 	"/>
	<path class="st2" d="M231.2,116c0-11.8,4.3-26.4,18.5-26.4s18.5,14.6,18.5,26.4c0,9.5-2.9,21.1-11.6,25l-0.1,3.1l-7.7-0.5l-0.2-1.3
		c-4.5-0.3-8-2-10.6-4.8c-2,0.5-3.7,1.7-4.5,3.5c4.6,3.6,10.2,5.2,16.2,5.2c8.1,0,15.2-2.9,20.4-9.3c4.9-6,6.2-13.4,6.2-21
		c0-7.9-1.5-15.7-6.8-21.8c-5.2-5.8-12-8.4-19.8-8.4c-8.1,0-15.3,2.9-20.4,9.3c-4.9,6-6.3,13.4-6.3,21c0,6,0.9,11.9,3.7,17.1
		c2.1-1.3,4.5-2.1,7-2.5C232,126,231.2,120.8,231.2,116z"/>
	<path class="st2" d="M298.3,119.4h7l7.3,12.2h9.4l-9.2-13.9c7.3-2.4,12-8.4,12-16.2c0-4.6-1.7-8.8-5.6-11.6
		c-3.4-2.4-7.8-2.7-11.8-2.7h-21l0.5,3.8l3.3,0.5l0.5,7.2v32.9h7.7L298.3,119.4L298.3,119.4z M298.3,92c2.2-0.6,4.5-1,6.8-1
		c7,0,11.6,3.4,11.6,10.7c0,4-1.1,8.3-4.4,10.9c-3.4,2.8-8.2,2.9-12.5,2.9h-1.5V92z"/>
	<polygon class="st2" points="292.1,139.7 290.2,139.4 290.2,140.5 286.8,141 286.3,144.7 292.5,144.7 292.5,143.1 	"/>
	<polygon class="st2" points="324.2,143.1 323.7,139.7 319.5,139.2 317.2,139.2 320.5,144.7 332.1,144.7 331.9,143.1 331.9,143.6 	
		"/>
	<polygon class="st2" points="343.9,140.5 340.6,141 340.1,144.7 356.3,144.7 355.8,141 352.5,140.5 352,133.3 352,98.7 352.5,91.5 
		355.8,91 356.3,87.2 340.1,87.2 340.6,91 343.9,91.5 344.4,98.7 344.4,133.3 	"/>
	<path class="st2" d="M366.6,143.6L366.6,143.6v-0.2V143.6z"/>
	<path class="st2" d="M382,146.2c0.3,0,0.6,0,1,0c7.2,0,14.1-3.4,17.1-9.5l-0.3-5.2h1.8c0.1-0.6,0.1-1.3,0.1-1.9c0-4.9-2.1-9-6-12
		c-3.1-2.4-7.2-4.7-10.7-6.7c-4.8-2.7-10-5.4-10-11.7c0-5.1,3.8-9.6,9-9.6c3.5,0,6.9,1.3,10,3.1l0.5,3.9l3.8,0.5l0.5-8.9
		c-4.7-1.5-9.7-2.4-14.6-2.4c-4.5,0-8.5,1.2-11.8,4.4c-2.9,2.9-4.8,6.8-4.8,10.9c0,9.1,8.4,13.5,15.4,17.4c5.6,3.2,11.1,5.7,11.1,13
		c0,6.7-5.2,10.9-11.7,10.9c-0.1,0-0.1,0-0.2,0l-0.1,0.7v3.1H382z"/>
	<path class="st2" d="M452.7,139.7l-0.5-0.1c-3.7,1.6-7.9,2.5-11.8,2.5c-14.5,0-21.8-12.3-21.8-25.6c0-6.1,1.5-13.2,4.7-18.4
		c3.5-5.8,8.9-8.6,15.6-8.6c4.5,0,8.6,1.3,12.6,3.7l0.5,4l3.8,0.5l0.5-9.1l-1.2-0.3c-5.8-1.5-10.5-2.6-16.6-2.6
		c-8.2,0-15.6,1.9-21.1,8.4c-4.9,5.6-6.9,14.1-6.9,21.5c0,5.6,1,11.1,3.3,15.9h6.1l-0.5,7.7h-0.1c5.3,5.2,11.9,7,19.5,7
		c4.9,0,9.8-0.8,14.3-2.7v-0.5L452.7,139.7z"/>
	<polygon class="st2" points="513.7,143.1 513.7,144.7 519.2,144.7 518.7,141 515.3,140.5 515.3,139.5 514.1,139.7 	"/>
	<polygon class="st2" points="483.6,144.7 483.1,141 479.7,140.5 479.2,133.3 479.2,116.9 507.2,116.9 507.2,131.6 514.8,131.6 
		514.8,98.7 515.3,91.5 518.7,91 519.2,87.2 502.9,87.2 503.4,91 506.8,91.5 507.2,98.7 507.2,113.1 479.2,113.1 479.2,98.7 
		479.7,91.5 483.1,91 483.6,87.2 467.3,87.2 467.8,91 471.2,91.5 471.7,98.7 471.7,133.3 471.4,137.3 474.9,144.7 	"/>
	<path class="st3" d="M70.6,181c-2.6-0.8-5.4-1.1-8.2-1.2l0.6,1.2H70.6z"/>
	<path class="st3" d="M99.3,140.8l0.1-1.1l2.4-0.3l1-0.1l0.5-7.7h-1H85.7l-2.4,5.1l-3.8,8.1l-9.7,20.5L54,131.6h-6.5H40h-5.7
		l0.5,7.7l3.3,0.5l0.1,1l0.3,2.4v1.7v32.9l-0.5,3.3l-3.3,0.5l-0.5,7.7h11.5v-1.7l-0.5-7.2l-3.3-0.5l-0.5-3.8h7.7v-24.3l0.1-0.1
		l11.4,24.4h5.1c2.5,0,4.9,0.1,7.3,0.6l11.9-25.4H85v25.6l-0.5,4.4l-0.6,0.1c0.7,0.6,1.4,1.1,2,1.8c1.8,1.8,3.2,3.9,4.2,6.2h13.1
		l-0.5-7.7l-3.3-0.5l-0.5-3.3v-32.9v-1.7L99.3,140.8z"/>
	<path class="st3" d="M186.3,140.5l0.1-0.8h0.2l3.1-0.4l0.5-7.7h-3.2h-16.9l0.5,7.7l3.3,0.5l0.5,3.3v22.8c0,8.2,0.2,17.1-10.5,17.1
		c-3.4,0-7.4-1.5-9.3-4.5c-1.8-2.9-2.2-7.2-2.2-10.6v-24.9v-0.1l0.4-3.2l3.3-0.5l0.5-7.7h-4.8h-19.2l0.5,7.7l3.3,0.5l0.3,2.2
		l0.1,1.1v3v19.8c0,7.9,0.5,13.6,6.9,19c5,4.2,12.2,5.6,18.5,5.6c6.7,0,13.2-1.4,18.2-6.3c5.1-5.2,5.4-11.5,5.4-18.3v-21.1v-1.7
		L186.3,140.5z"/>
	<path class="st3" d="M242.6,152.9c-2-1.2-5.4-3-7.1-4.4c-1.6-1.3-2.6-2.7-2.6-4.9c0-1,0.2-1.9,0.6-2.6c0.8-1.8,2.5-3.1,4.5-3.5
		c0.6-0.1,1.2-0.2,1.7-0.2c2.9,0,6.1,1.3,8.5,2.9l0.3,2.1l0.2,1.3l7.7,0.5l0.1-3.1l0.3-8.5c-5.8-1.5-11.9-2.4-18-2.4
		c-1.7,0-3.5,0.1-5.2,0.4c-2.4,0.4-4.8,1.3-7,2.5c-0.8,0.4-1.5,0.9-2.1,1.5c-3.5,2.9-5.6,7.7-5.6,12.3c0,10.1,9.5,15.2,17.3,19.4
		c4,2.2,9.1,4.3,9.1,9.5c0,4.5-4,7.6-8.3,7.6c-3.5,0-6.8-1.3-9.8-3l-0.5-4l-7.7-0.5l-0.5,12.7l0.9,0.1c5.9,1,10.4,1.7,16.4,1.7
		c5.3,0,11.7-0.7,16.2-3.7c4.7-3.1,7.5-8.6,7.5-14.1C259.7,162.3,250.5,157.4,242.6,152.9z"/>
	<path class="st3" d="M288.3,189.1h5.1c-0.1-4-1.9-6.4-4.4-7.7h-0.2L288.3,189.1z"/>
	<path class="st3" d="M301.2,188.8c0,0.1,0,0.3,0,0.3h33l-0.5-12l-7.7,0.5l-0.5,2.9l-4.3,0.5h-13l-0.5-3.3v-14.9H318l9.5,0.5
		l0.5-7.2h-20.1v-16.8h9.3h2.3l4.3,0.5l0.5,3.4l7.7,0.5V143l0.5-11.5H322h-9.4h-14.3h-7.7h-2.4l0.5,7.7l1.5,0.2l1.8,0.3l0.5,3.3v1.7
		v32c1,0.3,2.1,0.7,3.1,1.3C299.2,180.3,301.2,184.6,301.2,188.8z"/>
	<path class="st3" d="M419.9,131.6h-6.1h-12.3h-1.8l0.3,5.2l0.1,2.5l3.3,0.5l0.5,3.3v22.8c0,3.5,0,7-0.8,10h1.5v7.7h-7.7v-1.1
		c-1,0.3-2.2,0.4-3.6,0.4c-3.4,0-7.4-1.5-9.3-4.5c-1.8-2.9-2.2-7.2-2.2-10.6v-21.7V143l0.1-0.7l0.3-2.6l3.3-0.5l0.5-7.7h-23.7
		l0.5,7.7l3.3,0.5l0.5,3.3v0.3v0.2v22.3c0,7.9,0.5,13.6,6.9,19c5,4.2,12.2,5.6,18.5,5.6c6.7,0,13.2-1.4,18.2-6.3
		c5.1-5.2,5.4-11.5,5.4-18.3V143l0.5-3.3l3.3-0.5h0.1L419.9,131.6z"/>
	<polygon class="st3" points="511.3,176.4 507.9,175.9 507.5,172.1 513.7,171.9 513.7,144.7 513.7,143.1 514.1,139.7 515.3,139.5 
		517.5,139.2 518,131.6 514.8,131.6 507.2,131.6 500.4,131.6 484.5,165.2 474.9,144.7 471.4,137.3 468.7,131.6 448.9,131.6 
		449.4,139.2 452.2,139.7 452.7,139.7 453.2,143.1 453.2,143.5 453.2,177.7 452.7,181 449.4,181.5 448.9,189.1 467.1,189.1 
		466.6,181.5 464.3,181 463.8,177.7 463.8,151.6 463.9,151.5 477.6,181 485.6,181 499.6,151.1 499.7,151.1 499.7,176.6 499.2,181 
		496.9,181.5 496.4,189.1 511.8,189.1 511.8,183.1 	"/>
	<path class="st2" d="M84,181.2c-3.3-2.6-7-4-10.9-4.7c-2.4-0.4-4.8-0.6-7.3-0.6h-5.1H49.1h-7.7l0.5,3.8l3.3,0.5l0.5,7.2v1.7V222
		l-0.5,7.2l-3.3,0.5l-0.5,3.8h23.2c8.4,0,15.6-1.7,21.4-8.3c5.2-6,7.2-14.1,7.2-21.8c0-4.8-0.9-9.8-3-14.3c-1.1-2.3-2.4-4.4-4.2-6.2
		C85.3,182.3,84.7,181.6,84,181.2z M79.7,222c-4.5,5.7-10.7,7.2-17.7,7.2l-8.2-0.5l-0.5-6.7v-42.3h5.2c1.3,0,2.6,0,3.9,0.1
		c2.9,0.1,5.6,0.4,8.2,1.2c2.6,0.8,5,2,7.2,4.1C83.1,190.1,85,197,85,204C85.1,210.1,83.6,217.2,79.7,222z"/>
	<path class="st2" d="M143,190.4c-12.2,0-18.8,10.2-18.8,21.6c0,12.7,7.9,22.5,21,22.5h0.1c4.6,0,9.1-1.1,13.2-2.9v-5.7
		c-3.7,2.2-8.4,3.3-12.6,3.3c-4.9,0-9.6-3.1-11.8-7.6c-1.5-3.1-1.7-6.8-1.8-10.2h26.2v-0.9c0-5-0.3-9.5-3.3-13.9
		C152.4,192.4,148.2,190.4,143,190.4z M132.9,207.6c0.1-5.6,2.7-13.4,9.5-13.4c7.3,0,8.1,7.2,8.1,13.4H132.9z"/>
	<path class="st2" d="M230.4,229.2l-0.5-7.2v-17.3c0-3.8-0.3-7.4-2.8-10.4c-2.3-2.9-5.4-4-9-4c-5.7,0-12.1,3.9-15.1,8.8h-0.5l0.5-2
		v-6.3l-12,0.5l0.5,3.8l3.3,0.5l0.5,6.7V222l-0.5,7.2l-3.3,0.5l-0.5,3.8h16.2l-0.5-3.8l-3.3-0.5l-0.5-7.2v-19.3
		c3.6-3.3,7.3-6.7,12.5-6.7c6.7,0,6.8,4.5,6.8,9.9V222l-0.5,7.2l-3.3,0.5l-0.5,3.8H234l-0.5-3.8L230.4,229.2z"/>
	<path class="st2" d="M301.2,189.1c0-0.1,0-0.3,0-0.3c0-4.1-2.1-8.4-5.6-10.7c-1-0.6-1.9-1-3.1-1.3c-2.7-0.8-5.7-0.8-8.4-0.8h-19.4
		l0.5,3.8l3.3,0.5l0.5,7.2V222l-0.5,7.2l-3.3,0.5l-0.5,3.8h18.1c4.9,0,10.1,0.1,14.3-2.6c4.1-2.6,6.5-7.1,6.5-12
		c0-8.5-7.2-14.3-15.3-15.1v-0.1C295.1,201.7,301,196.6,301.2,189.1z M295.5,218.3c0,3.1-1.2,6.1-3.3,8.2c-2.6,2.4-6.1,3.1-9.5,3.1
		l-5.4-0.5l-0.6-7.2v-16.4h2.4C286.6,205.6,295.5,210,295.5,218.3z M278.2,201.8h-1.5v-22.1h0.8c4,0,8.2,0.1,11.4,1.7
		c2.5,1.3,4.2,3.6,4.4,7.7c0,0.2,0.1,0.4,0.1,0.6c0,4-1.3,7.6-4.6,10C285.5,202.1,282,201.8,278.2,201.8z"/>
	<path class="st2" d="M347.4,199.2h-0.5l0.5-2v-6.3l-11.9,0.5l0.5,3.8l3.3,0.5l0.5,6.7V222l-0.5,7.2l-3.3,0.5l-0.5,3.8h17.2
		l-0.5-3.8l-4.3-0.5l-0.5-7.2v-19.3c3.3-3.4,6.2-5.7,11.6-5.7l0.5,3.8l3.8,0.5l0.5-10.5c-0.8-0.4-1.6-0.5-2.6-0.5
		C355.3,190.4,350.1,194,347.4,199.2z"/>
	<polygon class="st2" points="405.3,229.2 404.8,222 404.8,202.3 405.3,190.8 392.9,191.3 393.4,195.1 396.7,195.6 397.2,202.3 
		397.2,222 396.7,229.2 393.4,229.6 392.9,233.5 409.1,233.5 408.6,229.6 	"/>
	<polygon class="st2" points="397.2,182.5 397.2,183.6 404.8,183.6 404.8,175.9 403.3,175.9 397.2,175.9 	"/>
	<path class="st2" d="M459.5,190.4c-12.2,0-18.8,10.2-18.8,21.6c0,12.7,7.9,22.5,21,22.5h0.1c4.6,0,9.1-1.1,13.3-2.9v-5.7
		c-3.7,2.2-8.4,3.3-12.6,3.3c-4.9,0-9.6-3.1-11.8-7.6c-1.5-3.1-1.7-6.8-1.8-10.2H475v-0.9c0-5-0.3-9.5-3.3-13.9
		C468.9,192.4,464.7,190.4,459.5,190.4z M449.3,207.6c0.1-5.6,2.7-13.4,9.5-13.4c7.3,0,8.1,7.2,8.1,13.4H449.3z"/>
	<polygon class="st2" points="523.3,229.6 519.9,229.2 519.4,222 519.4,183.1 519.9,171.6 513.7,171.9 507.5,172.1 507.9,175.9 
		511.3,176.4 511.8,183.1 511.8,189.1 511.8,222 511.3,229.2 507.9,229.6 507.5,233.5 523.8,233.5 523.8,233.5 	"/>
</g>
</svg>
